# xmcd
#
# Track frame offsets:
#	150
#	13643
#	26697
#	47006
#	64587
#	75084
#	88296
#	97028
#	112763
#	128473
#	141010
#	154758
#	168337
#	183847
#
# Disc length: 2666 seconds
#
# Revision: 1
# Processed by: cddbd v1.5.2PL0 Copyright (c) Steve Scherf et al.
# Submitted via: audiograbber 1.81.03
#
DISCID=9f0a680e
DTITLE=Dirilinga cu Surubul - Muzica de petrecere
DYEAR=1900
DGENRE=
TTITLE0=Nelu - Zai-Zai
TTITLE1=Diana Onofrei - Rita-Rita
TTITLE2=Olesea Covalenco - Iarna ai fost la mine
TTITLE3=Costel Paladi - La fantana de la poarta
TTITLE4=Elena Scurtu - Barbatelul tau Iubit
TTITLE5=Dragoste - Si acum m-am insurat
TTITLE6=Doru - Frunzulita mararas
TTITLE7=Ionel - Masina noua
TTITLE8=Danco - Cracanat m-o facut mama
TTITLE9=Violeta Stratulat - Barbatel ca-l meu mai rar
TTITLE10=Codrii - Cumetrele
TTITLE11=Lenuta Gheorghita - Ce-i de bine-n sat
TTITLE12=Valeriu Cornea - Singur beau singur cinstesc
TTITLE13=Claudia - Ducea vale-n vale
EXTD=
EXTT0=
EXTT1=
EXTT2=
EXTT3=
EXTT4=
EXTT5=
EXTT6=
EXTT7=
EXTT8=
EXTT9=
EXTT10=
EXTT11=
EXTT12=
EXTT13=
PLAYORDER=
